<svg
                                      style="transform: scale(1);"
                                      viewBox="0 0 512 327"
                                      fill="none"
                                      xmlns="http://www.w3.org/2000/svg">
                                      <path
                                          fill-rule="evenodd"
                                          clip-rule="evenodd"
                                          d="M235.212 1.52375C215.123 6.07586 198.744 19.1214 190.527 37.1152C185.726 47.6307 184.583 53.6559 184.489 68.962C184.402 83.1613 184.822 84.9299 189.481 89.9371C191.323 91.9162 192.023 94.2606 192.79 101.011C194.601 116.948 200.246 129.081 211.189 140.551L217.119 146.768L216.597 153.276C216.31 156.855 215.4 160.815 214.574 162.073C213.559 163.623 205.536 167.696 189.758 174.675C163.086 186.469 157.12 190.1 151.851 197.751C144.378 208.599 144.484 207.582 144.484 268.295V322.41L146.674 324.601C149.633 327.56 154.684 327.52 157.115 324.519C158.851 322.375 158.956 319.3 158.956 270.457C158.956 241.974 159.301 218.67 159.722 218.67C160.52 218.67 179.464 237.703 181.975 241.028C183.145 242.576 183.5 250.243 183.907 282.67C184.4 321.934 184.433 322.441 186.596 324.603C189.301 327.305 194.12 327.461 196.91 324.937C198.924 323.115 198.954 322.362 198.669 281.605C198.379 240.157 198.377 240.125 196.013 235.636C194.711 233.166 187.541 224.965 180.081 217.413C166.607 203.773 166.528 203.667 168.474 201.728C170.398 199.81 213.981 179.746 216.222 179.746C216.851 179.746 224.434 186.825 233.073 195.476L248.78 211.207V267.181C248.78 322.008 248.821 323.192 250.79 324.974C253.543 327.465 258.373 327.291 261.062 324.603L263.252 322.413L263.528 266.3L263.802 210.186L278.984 194.966C287.335 186.595 294.724 179.746 295.403 179.746C296.696 179.746 329.373 194.037 337.521 198.166C346.32 202.625 346.511 202.053 330.904 217.985C311.39 237.907 312.656 233.399 312.656 282.971C312.656 319.652 312.777 322.396 314.496 324.519C316.926 327.519 321.978 327.56 324.938 324.603C327.099 322.442 327.133 321.916 327.626 283.267C328.02 252.392 328.419 243.593 329.516 241.625C331.135 238.72 350.572 218.67 351.769 218.67C352.213 218.67 352.578 241.829 352.578 270.135C352.578 304.503 352.929 322.257 353.637 323.579C356.199 328.365 364.114 327.915 366.421 322.851C367.889 319.63 367.999 221.314 366.542 213.639C364.967 205.327 361.124 198.086 355.242 192.343C350.393 187.609 347.37 185.988 324.523 175.875C310.586 169.705 298.396 163.736 297.435 162.609C296.11 161.055 295.689 158.76 295.689 153.086V145.61L302.009 138.783C308.943 131.294 314.723 120.862 317.192 111.379C318.049 108.086 319.02 99.4056 319.35 92.0909C319.926 79.2579 320.044 78.694 322.708 76.0302C326.801 71.9372 327.952 66.394 326.75 56.5672C323.7 31.6289 307.019 11.1829 283.428 3.46795C276.081 1.06564 273.465 0.753255 258.262 0.465817C246.379 0.241255 239.472 0.558633 235.212 1.52375ZM274.666 16.6781C295.322 21.7562 309.626 38.1762 312.121 59.6702L312.825 65.7373L304.081 66.9789C298.779 67.7314 290.596 68.0079 283.287 67.6795C264.654 66.8452 253.102 62.8819 239.975 52.8196C234.728 48.7984 233.017 47.985 230.913 48.51C226.851 49.523 224.827 51.9393 224.827 55.7748C224.827 58.4915 225.64 60.0115 228.57 62.7771C236.696 70.4451 248.18 76.4035 261.959 80.0993C268.672 81.9008 273.449 82.3748 287.205 82.6054L304.172 82.8888L304.154 92.6428C304.124 108.549 299.761 119.783 289.706 129.838C280.279 139.265 269.229 143.816 255.767 143.816C230.347 143.816 210.172 124.947 207.436 98.6151C206.845 92.9252 206.883 92.8114 209.968 91.1297C211.691 90.1906 215.29 87.7274 217.966 85.6564C222.132 82.4307 222.831 81.3918 222.831 78.4206C222.831 74.1878 219.919 70.9581 216.103 70.9581C214.598 70.9581 211.117 72.4941 208.368 74.3715C199.531 80.4057 199.347 80.257 199.562 67.1945C199.673 60.4097 200.376 53.7807 201.333 50.4891C206.09 34.1261 219.625 21.2153 236.804 16.6552C244.575 14.5932 266.238 14.6062 274.666 16.6781ZM73.4668 41.0575C64.0502 42.9209 55.6676 49.7016 51.3081 58.9815C49.1992 63.4708 48.7162 66.0168 48.6533 72.9542L48.5775 81.4377L41.0701 88.923C28.3989 101.556 24.254 113.121 24.254 135.831C24.254 158.088 28.5236 170.044 40.9364 182.538L48.1723 189.823V199.034C48.1723 205.815 47.7561 208.839 46.5943 210.498C45.727 211.736 38.2686 216.13 30.0207 220.261C13.0628 228.753 6.78109 233.808 3.11825 241.91C0.804767 247.026 0.759854 247.727 0.468424 283.472C0.260829 308.913 0.51134 320.649 1.30279 322.56C2.9356 326.502 7.20826 328.047 11.0208 326.076C12.6576 325.23 14.2755 323.81 14.6168 322.921C14.9571 322.033 15.2366 307.095 15.2366 289.726V258.147L22.3307 265.106C26.2331 268.933 30.0506 273.511 30.8142 275.277C31.8551 277.682 32.2034 283.743 32.2034 299.433C32.2034 312.961 32.6057 321.259 33.3392 322.869C35.5968 327.824 43.6451 328.194 46.1791 323.459C46.9486 322.023 47.2031 313.754 46.9886 297.212C46.6842 273.736 46.6053 272.927 44.1801 268.147C42.8077 265.442 37.0639 258.401 31.416 252.501L21.146 241.771L37.8983 233.229L54.6496 224.687L63.3875 233.385L72.1255 242.082V281.229C72.1255 308.363 72.4738 321.142 73.2612 322.869C75.4869 327.756 83.5621 328.204 86.0373 323.579C86.7319 322.28 87.0962 308.105 87.0962 282.341V243.082L96.3721 233.845L105.648 224.608L111.093 227.609C120.438 232.759 127.018 231.036 127.018 223.437C127.018 220.04 124.584 217.497 118.268 214.296C112.208 211.225 111.049 208.7 111.049 198.559V190.519L117.815 183.819C125.304 176.405 131.005 166.727 133.478 157.238C135.58 149.167 135.578 122.522 133.476 114.333C130.448 102.543 122.101 89.6556 113.817 83.9787L110.267 81.5464L110.762 74.0072C111.813 58.0014 102.842 45.5288 87.3847 41.5027C81.1588 39.8808 79.6578 39.8329 73.4668 41.0575ZM86.696 56.8906C92.0995 59.3448 95.2763 63.9608 95.8791 70.2336C96.1945 73.5141 96.0078 75.0242 95.3371 74.61C92.5236 72.8714 80.1797 72.048 72.3111 73.074C67.747 73.6698 63.7728 73.9164 63.4784 73.6229C61.9853 72.1288 64.6241 64.4409 67.8598 60.8599C73.1385 55.0173 79.5799 53.6599 86.696 56.8906ZM400.983 56.9285C386.578 59.3288 375.659 66.5458 367.716 78.9146C362.595 86.89 360.562 95.8335 360.562 110.389C360.562 121.767 360.704 122.641 362.872 124.679C364.142 125.873 365.939 126.849 366.864 126.849C368.281 126.849 368.547 127.946 368.547 133.786C368.547 147.123 372.742 158.713 380.693 167.339C384.739 171.728 384.742 171.737 384.35 178.684C383.971 185.378 383.801 185.779 379.745 189.524C374.78 194.106 374.266 197.532 377.983 201.249C380.818 204.084 382.859 204.29 386.952 202.156L389.887 200.625L399.178 209.877L408.469 219.129V270.217C408.469 298.316 408.748 322.033 409.088 322.921C409.43 323.81 411.048 325.23 412.684 326.076C416.387 327.99 420.616 326.574 422.312 322.851C423.102 321.117 423.439 305.261 423.439 269.792V219.207L432.578 210.029L441.717 200.852L463.518 211.761C475.508 217.761 485.318 223.016 485.318 223.438C485.318 223.861 481.745 227.758 477.379 232.098C464.58 244.823 464.915 243.44 464.56 284.965C464.351 309.323 464.603 320.644 465.394 322.556C467.028 326.501 471.3 328.048 475.114 326.076C476.751 325.23 478.369 323.81 478.71 322.921C479.051 322.033 479.33 306.283 479.33 287.92C479.33 261.602 479.625 253.856 480.719 251.324C481.483 249.557 485.3 244.98 489.203 241.153L496.297 234.193V277.285C496.297 307.186 496.642 321.135 497.425 322.851C499.141 326.621 503.349 327.99 507.159 326.021C508.853 325.144 510.491 323.424 510.797 322.199C511.102 320.974 511.221 299.761 511.061 275.059C510.778 231.534 510.703 230.005 508.624 225.507C504.623 216.851 500.174 213.63 474.431 200.751C460.604 193.832 449.888 187.854 448.972 186.547C447.932 185.062 447.393 182.118 447.393 177.93C447.393 171.92 447.615 171.315 451.42 166.994C459.002 158.379 463.361 146.074 463.361 133.287C463.361 127.596 463.584 126.849 465.285 126.849C466.344 126.849 468.14 125.665 469.277 124.219C471.078 121.93 471.344 120.218 471.329 110.995C471.299 92.8005 467.925 82.2391 458.959 72.2666C453.435 66.1216 446.762 61.6962 438.828 58.9157C432.187 56.5882 410.015 55.4245 400.983 56.9285ZM436.451 74.121C449.641 80.1841 456.332 90.9421 456.363 106.139C456.377 112.874 456.934 112.698 442.901 110.398C429.926 108.272 420.638 105.464 409.735 100.369C399.268 95.4772 398.217 95.4543 393.044 99.9954C388.98 103.564 378.624 109.882 376.839 109.882C375.909 109.882 375.533 108.169 375.533 103.932C375.533 88.5588 386.479 75.1739 401.677 71.9602C404.04 71.4602 411.603 71.1787 418.486 71.3334C429.376 71.5779 431.705 71.9402 436.451 74.121ZM91.8939 89.3223C107.259 94.1269 118.684 108.25 119.797 123.814C120.269 130.415 120.224 130.577 117.686 131.213C102.154 135.112 85.9964 130.592 73.6525 118.894C70.3419 115.757 66.8448 112.908 65.8787 112.563C63.4504 111.694 59.2177 113.461 55.6576 116.832C51.6275 120.647 43.201 125.851 41.0532 125.851C39.608 125.851 39.4124 125.221 39.8924 122.108C43.705 97.3865 68.2321 81.9217 91.8939 89.3223ZM417.451 119.465C422.666 121.291 431.648 123.617 437.412 124.635L447.892 126.487L447.855 134.902C447.81 145.071 444.926 152.347 438.451 158.631C432.269 164.63 426.308 167.174 417.451 167.591C407.561 168.056 400.305 165.421 393.688 158.96C386.259 151.704 384.133 146.358 383.686 133.81L383.312 123.306L388.23 121.082C390.936 119.86 394.904 117.551 397.049 115.951C400.849 113.118 401.038 113.083 404.459 114.595C406.39 115.449 412.236 117.64 417.451 119.465ZM66.221 132.439C68.4157 135.084 78.2226 140.989 84.5682 143.488C92.9039 146.77 105.951 148.376 113.545 147.055C116.838 146.481 119.718 146.188 119.943 146.405C120.812 147.239 117.783 157.969 115.398 162.505C111.765 169.414 104.499 176.393 97.1785 180.007C91.7481 182.688 89.4327 183.217 81.7087 183.543C74.2513 183.859 71.6224 183.549 67.0304 181.819C51.3351 175.903 41.7708 163.814 39.6908 147.262L39.0581 142.226L44.4116 140.538C47.3558 139.61 52.6625 137.07 56.2046 134.893C63.4863 130.417 64.3646 130.202 66.221 132.439ZM241.295 157.342C249.975 159.393 262.964 159.162 272.235 156.79C276.527 155.693 280.192 154.794 280.379 154.794C280.565 154.794 280.718 156.38 280.718 158.32C280.718 160.259 281.408 163.496 282.251 165.514L283.785 169.184L269.78 183.189L255.776 197.194L241.859 183.304L227.942 169.413L229.378 165.974C230.169 164.082 230.816 161.504 230.816 160.244C230.816 156.499 231.909 154.618 233.689 155.303C234.579 155.647 238.001 156.564 241.295 157.342ZM415.954 182.19C421.443 182.19 427.337 181.821 429.05 181.367C432.027 180.582 432.19 180.695 432.696 183.889C433.19 187.003 432.641 187.824 424.611 195.964C419.872 200.768 415.753 204.697 415.458 204.697C415.162 204.697 411.227 200.692 406.713 195.797C399.155 187.601 398.555 186.645 399.14 183.724C399.738 180.736 399.953 180.599 402.873 181.371C404.578 181.822 410.465 182.19 415.954 182.19ZM80.1099 198.21C85.8736 198.21 91.7601 197.88 93.1913 197.478L95.7932 196.746L96.3941 204.464L96.9949 212.182L88.5594 220.651L80.1248 229.12L71.6334 220.673L63.143 212.226V204.391V196.554L66.3867 197.382C68.1702 197.837 74.3461 198.21 80.1099 198.21Z"
                                          fill="currentColor"/>
                                  </svg>