<svg
                                      width="59"
                                      height="71"
                                      viewBox="0 0 59 71"
                                      fill="none"
                                      xmlns="http://www.w3.org/2000/svg">
                                      <path
                                          d="M57.8026 42.3964C57.4539 40.5121 55.5943 39.2167 53.7346 39.57C53.6184 39.57 53.5022 39.57 53.386 39.6878L52.1075 40.041C50.829 38.8634 49.318 37.9213 47.6909 37.3324L37.5792 33.6817C38.7414 31.9152 39.555 29.9132 39.7875 27.7934L42.5769 26.3802C43.7392 25.7914 44.5527 24.6137 44.5527 23.2005V20.4919C44.5527 19.9031 44.4365 19.432 44.2041 18.8432C43.3905 17.3122 41.6471 16.4879 40.0199 17.0767V0H37.6954C37.6954 2.00202 36.1845 3.53297 34.2086 3.53297H22.4697C19.2154 3.53297 16.6584 6.12382 16.6584 9.42126V17.1938C14.7988 16.605 12.8229 17.6649 12.2418 19.4314C12.1256 19.7847 12.1256 20.138 12.1256 20.4913V23.1999C12.1256 24.4953 12.8229 25.7907 14.1014 26.3795L16.8909 27.7927C17.1233 29.9125 17.9369 31.9145 19.0992 33.681L9.1037 37.3318C3.75728 39.216 0.386719 44.0444 0.386719 49.5794V70.6588H55.0131C56.989 70.6588 58.4999 69.1279 58.4999 67.1258V51.8163H41.9958L58.6155 46.7523L57.8026 42.3964ZM49.4343 40.8654L39.555 43.8096L39.4388 43.9273L36.4169 44.8694V43.574C36.4169 42.2786 35.3709 41.2187 34.0924 41.2187H31.5354C30.9543 41.2187 30.2569 41.4542 29.9082 41.9253L28.2811 43.6918L26.6539 42.0431C26.189 41.572 25.6078 41.3365 25.0267 41.3365H22.4697C21.1912 41.3365 20.1452 42.3964 20.1452 43.6918V47.2248C20.1452 48.5202 21.1912 49.5801 22.4697 49.5801H25.0267C25.6078 49.5801 26.3052 49.3445 26.6539 48.8735L28.2811 47.2248L29.9082 48.8735C30.3731 49.3445 30.9543 49.5801 31.5354 49.5801H32.2328L32.9301 53.2308V67.1272C32.9301 67.4805 33.0463 67.9515 33.1626 68.3048H29.4433V51.8176H27.1188V68.3048H18.8667L16.6584 37.0962L20.4939 35.683C21.4237 36.6252 22.586 37.4495 23.7482 38.0384C26.5377 39.4515 29.792 39.4515 32.5814 38.0384C33.7437 37.4495 34.906 36.6252 35.8358 35.683L46.7611 39.5693C47.8071 39.9226 48.6207 40.2759 49.4343 40.8647V40.8654ZM32.5808 47.107H31.651L30.0238 45.3405L31.651 43.574H34.0917V45.576C33.3944 45.9293 32.9294 46.4004 32.5808 47.107ZM35.254 47.5781L38.9732 46.4004L42.3438 49.109L34.9053 51.3466L34.4404 48.8735C34.3242 48.4024 34.6728 47.8136 35.254 47.5781ZM41.7627 45.6938L47.1091 44.0451L50.4796 46.7537L45.1332 48.4024L41.7627 45.6938ZM26.6532 45.3405L25.0261 47.107H22.4691V43.574H25.0261L26.6532 45.3405ZM42.9249 56.5283L44.0872 54.1729H49.666L48.5038 56.5283H42.9249ZM40.3679 56.5283H35.254V54.1729H41.5302L40.3679 56.5283ZM9.80106 47.6958L11.7769 38.7456L14.4501 37.8035L16.426 65.3607L12.1256 54.1729L13.4041 50.1689L9.80106 47.6958ZM18.9829 17.4293L25.3754 15.7806C29.4433 14.7207 33.6275 15.1918 37.3467 17.076L37.5792 17.1938V26.3795C37.5792 30.3836 35.2546 34.1521 31.6516 35.9186C29.5595 36.9785 27.0026 36.9785 24.7943 35.9186C21.3075 34.1521 18.9829 30.3836 18.9829 26.3795V17.4293ZM40.7166 19.4314C41.2977 19.1958 41.9951 19.5491 42.2276 20.2557V20.609V23.3176C42.2276 23.7887 41.9951 24.142 41.5302 24.3775L39.903 25.2019V19.6669L40.7166 19.4314ZM22.4684 5.88896H34.091C35.3695 5.88896 36.5318 5.4179 37.5778 4.7113V14.6036C33.5099 12.8371 29.0933 12.3661 24.7929 13.426L18.9816 14.9569V9.42194C18.9816 7.41992 20.4926 5.88896 22.4684 5.88896ZM14.3326 23.3183V20.6097C14.3326 20.3742 14.3326 20.2564 14.4488 20.0209C14.6812 19.5498 15.2624 19.1965 15.8435 19.432L16.6571 19.6676V25.2026L15.0299 24.3782C14.565 24.1427 14.3326 23.6716 14.3326 23.3183ZM2.70992 49.5794C2.70992 45.3398 5.2669 41.4536 9.2186 39.8048L7.24275 48.8728L10.6133 51.2281L9.56728 54.1723L14.9137 68.3042H2.70992V49.5794ZM55.0118 68.3035H36.4156C35.7182 68.3035 35.2533 67.8324 35.2533 67.1258V58.8822H56.1741V67.1258C56.1741 67.8324 55.7092 68.3035 55.0118 68.3035ZM56.1741 56.5269H51.0601L52.2224 54.1716H56.1741V56.5269ZM53.1522 45.928L49.7816 43.2194L54.082 41.924H54.4307C55.0118 41.924 55.4767 42.2773 55.5929 42.8661L56.0578 45.2214L53.1522 45.928Z"
                                          fill="currentColor"/>
                                      <path d="M37.5781 62.418H44.5517V64.7733H37.5781V62.418Z" fill="currentColor"/>
                                      <path d="M46.875 62.418H50.3618V64.7733H46.875V62.418Z" fill="currentColor"/>
                                  </svg>