<svg width="82" height="255" viewBox="0 0 82 255" fill="none" xmlns="http://www.w3.org/2000/svg">
<path fill-rule="evenodd" clip-rule="evenodd" d="M81.5765 5.58106C81.5767 5.58108 81.577 5.58112 81.5772 5.58114C114.296 8.66337 138.321 37.6859 135.239 70.4047C135.229 70.5066 135.22 70.6084 135.21 70.7101L129.657 129.647L70.4155 124.067L70.4147 124.067C37.6962 120.984 13.6714 91.9616 16.7536 59.243L16.7529 59.2429L22.3338 0.000180515L81.5765 5.58106Z" fill="#FFDBCB"/>
<mask id="mask0_7_5911" style="mask-type:alpha" maskUnits="userSpaceOnUse" x="0" y="123" width="130" height="120">
<mask id="path-2-inside-1_7_5911" fill="white">
<path fill-rule="evenodd" clip-rule="evenodd" d="M70.4054 124.182C70.4051 124.182 70.4049 124.182 70.4046 124.182C37.6857 121.099 8.66323 145.125 5.581 177.843C5.57142 177.945 5.56211 178.047 5.55306 178.148L0.000885832 237.086L59.2428 242.667L59.2436 242.667C91.9621 245.749 120.984 221.724 124.066 189.005L124.067 189.005L129.648 129.763L70.4054 124.182Z"/>
</mask>
<path fill-rule="evenodd" clip-rule="evenodd" d="M70.4054 124.182C70.4051 124.182 70.4049 124.182 70.4046 124.182C37.6857 121.099 8.66323 145.125 5.581 177.843C5.57142 177.945 5.56211 178.047 5.55306 178.148L0.000885832 237.086L59.2428 242.667L59.2436 242.667C91.9621 245.749 120.984 221.724 124.066 189.005L124.067 189.005L129.648 129.763L70.4054 124.182Z" fill="#D8D8D8"/>
<path d="M70.4054 124.182L70.3643 124.617L70.4054 124.182ZM5.55306 178.148L5.98864 178.189L5.98883 178.187L5.55306 178.148ZM0.000885832 237.086L-0.434686 237.045L-0.475718 237.481L-0.0401466 237.522L0.000885832 237.086ZM59.2428 242.667L59.2839 242.232L59.2428 242.667ZM59.2436 242.667L59.2026 243.103L59.2026 243.103L59.2436 242.667ZM124.066 189.005L124.101 188.569L123.671 188.535L123.631 188.964L124.066 189.005ZM124.067 189.005L124.033 189.441L124.462 189.475L124.503 189.046L124.067 189.005ZM129.648 129.763L130.084 129.804L130.125 129.368L129.689 129.327L129.648 129.763ZM70.3636 124.617L70.3643 124.617L70.4464 123.746L70.4456 123.746L70.3636 124.617ZM6.01657 177.885C9.07614 145.406 37.8853 121.558 70.3636 124.617L70.4456 123.746C37.4862 120.641 8.25032 144.843 5.14543 177.802L6.01657 177.885ZM5.98883 178.187C5.99782 178.086 6.00706 177.985 6.01657 177.885L5.14543 177.802C5.13578 177.905 5.1264 178.007 5.11729 178.109L5.98883 178.187ZM0.436457 237.127L5.98863 178.189L5.11749 178.107L-0.434686 237.045L0.436457 237.127ZM59.2839 242.232L0.0419183 236.651L-0.0401466 237.522L59.2018 243.103L59.2839 242.232ZM59.2846 242.232L59.2839 242.232L59.2018 243.103L59.2026 243.103L59.2846 242.232ZM123.631 188.964C120.571 221.442 91.7626 245.291 59.2846 242.232L59.2026 243.103C92.1617 246.207 121.397 222.005 124.502 189.046L123.631 188.964ZM124.032 189.441L124.033 189.441L124.102 188.569L124.101 188.569L124.032 189.441ZM124.503 189.046L130.084 129.804L129.213 129.722L123.632 188.964L124.503 189.046ZM129.689 129.327L70.4464 123.746L70.3643 124.617L129.607 130.198L129.689 129.327Z" fill="#979797" mask="url(#path-2-inside-1_7_5911)"/>
</mask>
<g mask="url(#mask0_7_5911)">
<rect x="130.811" y="215.737" width="138.286" height="1.6762" transform="rotate(-174.618 130.811 215.737)" fill="#FFDBCB"/>
<rect x="131.439" y="209.062" width="138.286" height="1.6762" transform="rotate(-174.618 131.439 209.062)" fill="#FFDBCB"/>
<rect x="128.295" y="242.437" width="138.286" height="1.6762" transform="rotate(-174.618 128.295 242.437)" fill="#FFDBCB"/>
<rect x="130.182" y="222.411" width="138.286" height="1.6762" transform="rotate(-174.618 130.182 222.411)" fill="#FFDBCB"/>
<rect x="127.352" y="252.449" width="138.286" height="1.6762" transform="rotate(-174.618 127.352 252.449)" fill="#FFDBCB"/>
<rect x="127.037" y="255.788" width="138.286" height="1.6762" transform="rotate(-174.618 127.037 255.788)" fill="#FFDBCB"/>
<rect x="131.754" y="205.724" width="138.286" height="1.6762" transform="rotate(-174.618 131.754 205.724)" fill="#FFDBCB"/>
<rect x="129.867" y="225.75" width="138.286" height="1.6762" transform="rotate(-174.618 129.867 225.75)" fill="#FFDBCB"/>
<rect x="130.496" y="219.074" width="138.286" height="1.6762" transform="rotate(-174.618 130.496 219.074)" fill="#FFDBCB"/>
<rect x="128.609" y="239.099" width="138.286" height="1.6762" transform="rotate(-174.618 128.609 239.099)" fill="#FFDBCB"/>
<rect x="131.125" y="212.398" width="138.286" height="1.6762" transform="rotate(-174.618 131.125 212.398)" fill="#FFDBCB"/>
<rect x="129.238" y="232.424" width="138.286" height="1.6762" transform="rotate(-174.618 129.238 232.424)" fill="#FFDBCB"/>
<rect x="127.666" y="249.113" width="138.286" height="1.6762" transform="rotate(-174.618 127.666 249.113)" fill="#FFDBCB"/>
<rect x="128.924" y="235.763" width="138.286" height="1.6762" transform="rotate(-174.618 128.924 235.763)" fill="#FFDBCB"/>
<rect x="127.98" y="245.775" width="138.286" height="1.6762" transform="rotate(-174.618 127.98 245.775)" fill="#FFDBCB"/>
<rect x="129.553" y="229.087" width="138.286" height="1.6762" transform="rotate(-174.618 129.553 229.087)" fill="#FFDBCB"/>
<rect x="138.355" y="135.634" width="138.286" height="1.6762" transform="rotate(-174.618 138.355 135.634)" fill="#FFDBCB"/>
<rect x="137.412" y="145.647" width="138.286" height="1.6762" transform="rotate(-174.618 137.412 145.647)" fill="#FFDBCB"/>
<rect x="136.154" y="158.997" width="138.286" height="1.6762" transform="rotate(-174.618 136.154 158.997)" fill="#FFDBCB"/>
<rect x="137.727" y="142.308" width="138.286" height="1.6762" transform="rotate(-174.618 137.727 142.308)" fill="#FFDBCB"/>
<rect x="134.896" y="172.347" width="138.286" height="1.6762" transform="rotate(-174.618 134.896 172.347)" fill="#FFDBCB"/>
<rect x="134.268" y="179.022" width="138.286" height="1.6762" transform="rotate(-174.618 134.268 179.022)" fill="#FFDBCB"/>
<rect x="132.383" y="199.048" width="138.286" height="1.6762" transform="rotate(-174.618 132.383 199.048)" fill="#FFDBCB"/>
<rect x="136.783" y="152.321" width="138.286" height="1.6762" transform="rotate(-174.618 136.783 152.321)" fill="#FFDBCB"/>
<rect x="133.955" y="182.359" width="138.286" height="1.6762" transform="rotate(-174.618 133.955 182.359)" fill="#FFDBCB"/>
<rect x="133.641" y="185.698" width="138.286" height="1.6762" transform="rotate(-174.618 133.641 185.698)" fill="#FFDBCB"/>
<rect x="133.012" y="192.373" width="138.286" height="1.6762" transform="rotate(-174.618 133.012 192.373)" fill="#FFDBCB"/>
<rect x="133.326" y="189.036" width="138.286" height="1.6762" transform="rotate(-174.618 133.326 189.036)" fill="#FFDBCB"/>
<rect x="137.098" y="148.984" width="138.286" height="1.6762" transform="rotate(-174.618 137.098 148.984)" fill="#FFDBCB"/>
<rect x="132.068" y="202.386" width="138.286" height="1.6762" transform="rotate(-174.618 132.068 202.386)" fill="#FFDBCB"/>
<rect x="134.582" y="175.685" width="138.286" height="1.6762" transform="rotate(-174.618 134.582 175.685)" fill="#FFDBCB"/>
<rect x="135.525" y="165.672" width="138.286" height="1.6762" transform="rotate(-174.618 135.525 165.672)" fill="#FFDBCB"/>
<rect x="138.041" y="138.971" width="138.286" height="1.6762" transform="rotate(-174.618 138.041 138.971)" fill="#FFDBCB"/>
<rect x="132.697" y="195.711" width="138.286" height="1.6762" transform="rotate(-174.618 132.697 195.711)" fill="#FFDBCB"/>
<rect x="138.984" y="128.958" width="138.286" height="1.6762" transform="rotate(-174.618 138.984 128.958)" fill="#FFDBCB"/>
<rect x="139.299" y="125.621" width="138.286" height="1.6762" transform="rotate(-174.618 139.299 125.621)" fill="#FFDBCB"/>
<rect x="136.469" y="155.659" width="138.286" height="1.6762" transform="rotate(-174.618 136.469 155.659)" fill="#FFDBCB"/>
<rect x="135.211" y="169.01" width="138.286" height="1.6762" transform="rotate(-174.618 135.211 169.01)" fill="#FFDBCB"/>
<rect x="135.84" y="162.333" width="138.286" height="1.6762" transform="rotate(-174.618 135.84 162.333)" fill="#FFDBCB"/>
<rect x="138.67" y="132.296" width="138.286" height="1.6762" transform="rotate(-174.618 138.67 132.296)" fill="#FFDBCB"/>
</g>
</svg>
