<svg width="20" height="20" viewBox="0 0 20 20" fill="none" xmlns="http://www.w3.org/2000/svg">
<path d="M2 1H18.0001C18.5524 1 19.0001 1.44764 19.0001 1.99987L19.0003 3.58569C19.0004 3.85097 18.895 4.10538 18.7074 4.29295L12.2929 10.7071C12.1054 10.8946 12 11.149 12 11.4142V17.7192C12 18.3698 11.3886 18.8472 10.7575 18.6894L8.75749 18.1894C8.31229 18.0781 8 17.6781 8 17.2192V11.4142C8 11.149 7.89464 10.8946 7.70711 10.7071L1.29289 4.29289C1.10535 4.10536 1 3.851 1 3.58579V2C1 1.44772 1.44771 1 2 1Z" stroke="#19191C" stroke-width="1.5" stroke-linecap="round" stroke-linejoin="round"/>
</svg>
