<svg width="137" height="20" viewBox="0 0 137 20" fill="none" xmlns="http://www.w3.org/2000/svg">
<path d="M7.18 14.74C4.2 14.74 1.9 12.38 1.9 8.92V8.76C1.9 5.36 3.82 2.92 7.14 2.92C10.44 2.92 12.32 5.52 12.32 8.72V8.88C12.32 12.34 10.36 14.74 7.18 14.74ZM7.18 16.18C11.34 16.18 14.12 12.94 14.12 8.9V8.74C14.12 4.72 11.34 1.52 7.14 1.52C2.94 1.52 0.1 4.72 0.1 8.78V8.94C0.1 12.94 2.96 16.18 7.18 16.18ZM17.6909 16H19.3509V9.66C19.3509 7.78 20.7309 6.8 22.2709 6.8C23.9509 6.8 24.7309 7.62 24.7309 9.46V16H26.3909V9.58C26.3909 6.54 24.8709 5.36 22.7109 5.36C20.9909 5.36 19.8309 6.22 19.3509 7.2V5.54H17.6909V16ZM30.4841 16H32.1641V0.539999H30.4841V16ZM36.4013 16H38.0613V5.54H36.4013V16ZM37.2013 3.36C37.8013 3.36 38.3013 2.86 38.3013 2.26C38.3013 1.66 37.8013 1.16 37.2013 1.16C36.6013 1.16 36.1013 1.66 36.1013 2.26C36.1013 2.86 36.6013 3.36 37.2013 3.36ZM42.2589 16H43.9189V9.66C43.9189 7.78 45.2989 6.8 46.8389 6.8C48.5189 6.8 49.2989 7.62 49.2989 9.46V16H50.9589V9.58C50.9589 6.54 49.4389 5.36 47.2789 5.36C45.5589 5.36 44.3989 6.22 43.9189 7.2V5.54H42.2589V16ZM59.292 16.18C61.652 16.18 63.392 15.08 63.752 12.98H62.092C61.872 14.2 60.932 14.8 59.312 14.8C57.172 14.8 56.032 13.48 55.952 11.1H63.832V10.56C63.832 6.82 61.552 5.36 59.132 5.36C56.252 5.36 54.232 7.56 54.232 10.72V10.88C54.232 14.1 56.332 16.18 59.292 16.18ZM56.012 9.76C56.292 7.9 57.432 6.74 59.132 6.74C60.852 6.74 61.972 7.6 62.132 9.76H56.012ZM73.5992 16.24C77.2992 16.24 79.9792 14.32 80.2592 10.62H76.1792C75.9792 12.2 74.9592 12.96 73.5192 12.96C71.5592 12.96 70.4592 11.5 70.4592 8.92V8.76C70.4592 6.16 71.6192 4.72 73.4592 4.72C74.8992 4.72 75.6992 5.52 75.8592 6.98H80.0792C79.7392 3.2 77.1592 1.48 73.4392 1.48C69.2592 1.48 66.1392 4.38 66.1392 8.78V8.94C66.1392 13.32 68.5992 16.24 73.5992 16.24ZM84.1727 16.24C85.8527 16.24 86.7727 15.54 87.2727 14.78V16H90.7527V9.22C90.7527 6.44 88.9127 5.26 86.0327 5.26C83.1727 5.26 81.1927 6.5 81.0327 9.02H84.3927C84.4727 8.36 84.8327 7.78 85.8127 7.78C86.9527 7.78 87.1927 8.44 87.1927 9.44V9.68H86.1927C82.7127 9.68 80.6327 10.64 80.6327 13.1C80.6327 15.32 82.2927 16.24 84.1727 16.24ZM85.4127 13.82C84.5727 13.82 84.1727 13.44 84.1727 12.84C84.1727 11.98 84.8127 11.7 86.2527 11.7H87.1927V12.34C87.1927 13.24 86.4327 13.82 85.4127 13.82ZM96.2952 16.24C99.1952 16.24 101.035 15.12 101.035 12.64C101.035 10.4 99.6352 9.64 96.7352 9.28C95.4552 9.12 94.9752 8.92 94.9752 8.42C94.9752 7.94 95.3752 7.6 96.1552 7.6C96.9752 7.6 97.3552 7.94 97.4952 8.64H100.735C100.495 6.14 98.6952 5.26 96.1152 5.26C93.6952 5.26 91.6352 6.38 91.6352 8.7C91.6352 10.88 92.8152 11.7 95.6152 12.06C97.0552 12.26 97.5552 12.5 97.5552 13C97.5552 13.52 97.1552 13.86 96.2752 13.86C95.2552 13.86 94.9152 13.44 94.7952 12.68H91.4952C91.5752 15 93.3152 16.24 96.2952 16.24ZM106.048 16.24C106.888 16.24 107.568 16.06 108.028 15.94V13.22C107.708 13.34 107.408 13.4 107.008 13.4C106.328 13.4 105.948 13.06 105.948 12.3V7.98H108.008V5.54H105.948V3.36H102.368V5.54H101.108V7.98H102.368V12.64C102.368 15.1 103.688 16.24 106.048 16.24ZM109.162 16H112.742V5.54H109.162V16ZM110.942 4.54C112.062 4.54 112.922 3.76 112.922 2.7C112.922 1.64 112.062 0.84 110.942 0.84C109.822 0.84 108.982 1.64 108.982 2.7C108.982 3.76 109.822 4.54 110.942 4.54ZM114.36 16H117.94V10.14C117.94 8.8 118.66 8.16 119.72 8.16C120.76 8.16 121.22 8.74 121.22 9.92V16H124.8V9.2C124.8 6.52 123.4 5.26 121.38 5.26C119.64 5.26 118.5 6.14 117.94 7.22V5.54H114.36V16ZM131.14 19.88C134.88 19.88 136.94 18.24 136.94 15.12V5.54H133.36V7.02C132.76 5.96 131.78 5.26 130.12 5.26C127.66 5.26 125.68 7.22 125.68 10.3V10.46C125.68 13.68 127.68 15.48 130.12 15.48C131.68 15.48 132.82 14.56 133.36 13.56V15.16C133.36 16.46 132.72 17.36 131.14 17.36C129.84 17.36 129.38 16.76 129.22 16H125.66C125.94 18.38 127.58 19.88 131.14 19.88ZM131.38 12.84C130.1 12.84 129.34 11.92 129.34 10.48V10.32C129.34 8.88 130.06 7.94 131.4 7.94C132.72 7.94 133.46 8.86 133.46 10.3V10.44C133.46 11.92 132.66 12.84 131.38 12.84Z" fill="white"/>
</svg>
