<svg width="224" height="214" viewBox="0 0 224 214" fill="none" xmlns="http://www.w3.org/2000/svg">
<path fill-rule="evenodd" clip-rule="evenodd" d="M192.132 134.579C135.197 158.546 81.4223 126.957 46.0353 81.4425C45.426 80.6619 44.2964 80.5185 43.5158 81.1278C42.7352 81.737 42.5918 82.8665 43.2011 83.6471C79.5766 130.438 134.997 162.525 193.527 137.887C194.44 137.505 194.868 136.452 194.484 135.535C194.102 134.623 193.049 134.195 192.132 134.579Z" fill="white"/>
<path fill-rule="evenodd" clip-rule="evenodd" d="M45.2813 83.3999C48.1919 84.6163 51.8278 86.1833 52.2456 86.3491C63.5676 90.842 74.9797 93.3377 87.1517 94.2521C88.1395 94.3275 89.0028 93.5835 89.0782 92.5956C89.1537 91.6078 88.4097 90.7446 87.4219 90.6692C75.6184 89.7863 64.5499 87.3688 53.5679 83.0093C52.9276 82.7556 44.7564 79.2281 43.0505 78.6389C42.352 78.3939 41.8806 78.4724 41.7712 78.5015C41.1841 78.6339 40.8588 78.9627 40.6592 79.2633C40.4365 79.6043 40.2061 80.2569 40.4139 81.1265C40.635 82.0357 41.5527 83.8 41.7484 84.264C44.6815 91.2739 48.5659 98.842 50.7304 106.56C52.7951 113.92 53.2961 121.425 49.591 128.671C49.1391 129.553 49.4921 130.637 50.3739 131.089C51.2556 131.54 52.3393 131.188 52.7912 130.306C56.9319 122.203 56.4966 113.816 54.1899 105.592C52.0372 97.9196 48.2392 90.3895 45.2813 83.3999Z" fill="white"/>
</svg>
