<svg width="162" height="128" viewBox="0 0 162 128" fill="none" xmlns="http://www.w3.org/2000/svg">
<path fill-rule="evenodd" clip-rule="evenodd" d="M-0.324147 32L46.8216 32.3352L46.8216 32.3353C46.822 32.3353 46.8225 32.3353 46.8229 32.3353C72.8608 32.5204 93.8403 50.7166 93.6821 72.9776C93.6738 74.1422 93.6078 75.2949 93.4865 76.4336C93.5903 77.7676 93.6385 79.1171 93.6288 80.4796C93.6278 80.6258 93.6261 80.7717 93.6237 80.9175L93.2916 127.624L46.496 127.291C46.3801 127.291 46.264 127.291 46.1479 127.29C20.11 127.105 -0.847801 105.847 -0.662665 79.8092C-0.66109 79.5877 -0.657991 79.3665 -0.653377 79.1457L-0.659366 79.1457L-0.324147 32Z" fill="#EECCBB" fill-opacity="0.19"/>
<mask id="mask0_7_6175" style="mask-type:alpha" maskUnits="userSpaceOnUse" x="68" y="0" width="94" height="94">
<mask id="path-2-inside-1_7_6175" fill="white">
<path fill-rule="evenodd" clip-rule="evenodd" d="M115.003 0.329525L161.348 0.65905L161.019 47.0039L161.018 47.0039L161.018 47.0052C160.836 72.6008 139.94 93.2026 114.344 93.0206C114.24 93.0199 114.136 93.0188 114.032 93.0174L68.0005 92.6901L68.3275 46.6976C68.3274 46.5806 68.3278 46.4634 68.3287 46.3462C68.5107 20.7506 89.4075 0.148842 115.003 0.330834L115.003 0.330834L115.003 0.329525Z"/>
</mask>
<path fill-rule="evenodd" clip-rule="evenodd" d="M115.003 0.329525L161.348 0.65905L161.019 47.0039L161.018 47.0039L161.018 47.0052C160.836 72.6008 139.94 93.2026 114.344 93.0206C114.24 93.0199 114.136 93.0188 114.032 93.0174L68.0005 92.6901L68.3275 46.6976C68.3274 46.5806 68.3278 46.4634 68.3287 46.3462C68.5107 20.7506 89.4075 0.148842 115.003 0.330834L115.003 0.330834L115.003 0.329525Z" fill="#D8D8D8"/>
<path d="M161.348 0.65905L161.948 0.663316L161.952 0.0633311L161.352 0.059065L161.348 0.65905ZM115.003 0.329525L115.007 -0.27046L114.407 -0.274726L114.403 0.325259L115.003 0.329525ZM161.019 47.0039L161.014 47.6039L161.614 47.6082L161.619 47.0082L161.019 47.0039ZM161.018 47.0039L161.023 46.404L160.423 46.3997L160.418 46.9997L161.018 47.0039ZM114.032 93.0174L114.04 92.4174L114.036 92.4174L114.032 93.0174ZM68.0005 92.6901L67.4005 92.6858L67.3962 93.2858L67.9962 93.29L68.0005 92.6901ZM68.3275 46.6976L68.9275 46.7019L68.9275 46.6974L68.3275 46.6976ZM115.003 0.330834L115.007 -0.269151L115.003 0.330834ZM115.003 0.330834L114.999 0.930819L115.599 0.935086L115.603 0.3351L115.003 0.330834ZM161.352 0.059065L115.007 -0.27046L114.999 0.92951L161.344 1.25903L161.352 0.059065ZM161.619 47.0082L161.948 0.663316L160.748 0.654784L160.419 46.9997L161.619 47.0082ZM161.014 47.6039L161.014 47.6039L161.023 46.404L161.023 46.404L161.014 47.6039ZM161.618 47.0095L161.618 47.0082L160.418 46.9997L160.418 47.001L161.618 47.0095ZM114.34 93.6206C140.267 93.8049 161.434 72.9364 161.618 47.0095L160.418 47.001C160.239 72.2652 139.613 92.6003 114.348 92.4206L114.34 93.6206ZM114.024 93.6173C114.129 93.6187 114.234 93.6198 114.34 93.6206L114.348 92.4206C114.245 92.4199 114.143 92.4188 114.04 92.4174L114.024 93.6173ZM67.9962 93.29L114.028 93.6173L114.036 92.4174L68.0047 92.0901L67.9962 93.29ZM67.7275 46.6934L67.4005 92.6858L68.6004 92.6943L68.9275 46.7019L67.7275 46.6934ZM67.7287 46.3419C67.7278 46.4607 67.7274 46.5793 67.7275 46.6978L68.9275 46.6974C68.9274 46.5819 68.9278 46.4662 68.9287 46.3505L67.7287 46.3419ZM115.007 -0.269151C89.0804 -0.453499 67.913 20.415 67.7287 46.3419L68.9287 46.3505C69.1083 21.0862 89.7346 0.751183 114.999 0.930818L115.007 -0.269151ZM115.007 -0.269151L115.007 -0.269151L114.999 0.930818L114.999 0.930819L115.007 -0.269151ZM114.403 0.325259L114.403 0.326568L115.603 0.3351L115.603 0.333791L114.403 0.325259Z" fill="#979797" mask="url(#path-2-inside-1_7_6175)"/>
</mask>
<g mask="url(#mask0_7_6175)">
<rect x="61.3398" y="19.5874" width="107.706" height="1.10318" transform="rotate(0.407382 61.3398 19.5874)" fill="#B0D0FF"/>
<rect x="61.3066" y="24" width="107.706" height="1.10318" transform="rotate(0.407382 61.3066 24)" fill="#B0D0FF"/>
<rect x="61.4629" y="1.93555" width="107.706" height="1.10318" transform="rotate(0.407382 61.4629 1.93555)" fill="#B0D0FF"/>
<rect x="61.3691" y="15.1738" width="107.706" height="1.10318" transform="rotate(0.407382 61.3691 15.1738)" fill="#B0D0FF"/>
<rect x="61.293" y="26.2061" width="107.706" height="1.10318" transform="rotate(0.407382 61.293 26.2061)" fill="#B0D0FF"/>
<rect x="61.3867" y="12.9688" width="107.706" height="1.10318" transform="rotate(0.407382 61.3867 12.9688)" fill="#B0D0FF"/>
<rect x="61.3555" y="17.3799" width="107.706" height="1.10318" transform="rotate(0.407382 61.3555 17.3799)" fill="#B0D0FF"/>
<rect x="61.4492" y="4.14307" width="107.706" height="1.10318" transform="rotate(0.407382 61.4492 4.14307)" fill="#B0D0FF"/>
<rect x="61.3223" y="21.7925" width="107.706" height="1.10318" transform="rotate(0.407382 61.3223 21.7925)" fill="#B0D0FF"/>
<rect x="61.416" y="8.55566" width="107.706" height="1.10318" transform="rotate(0.407382 61.416 8.55566)" fill="#B0D0FF"/>
<rect x="61.4355" y="6.34912" width="107.706" height="1.10318" transform="rotate(0.407382 61.4355 6.34912)" fill="#B0D0FF"/>
<rect x="61.4824" y="-0.269531" width="107.706" height="1.10318" transform="rotate(0.407382 61.4824 -0.269531)" fill="#B0D0FF"/>
<rect x="61.4023" y="10.7617" width="107.706" height="1.10318" transform="rotate(0.407382 61.4023 10.7617)" fill="#B0D0FF"/>
<rect x="60.9648" y="72.5381" width="107.706" height="1.10318" transform="rotate(0.407382 60.9648 72.5381)" fill="#B0D0FF"/>
<rect x="61.0117" y="65.9199" width="107.706" height="1.10318" transform="rotate(0.407382 61.0117 65.9199)" fill="#B0D0FF"/>
<rect x="61.0723" y="57.0938" width="107.706" height="1.10318" transform="rotate(0.407382 61.0723 57.0938)" fill="#B0D0FF"/>
<rect x="60.9922" y="68.125" width="107.706" height="1.10318" transform="rotate(0.407382 60.9922 68.125)" fill="#B0D0FF"/>
<rect x="61.1328" y="48.2695" width="107.706" height="1.10318" transform="rotate(0.407382 61.1328 48.2695)" fill="#B0D0FF"/>
<rect x="61.166" y="43.8574" width="107.706" height="1.10318" transform="rotate(0.407382 61.166 43.8574)" fill="#B0D0FF"/>
<rect x="61.2598" y="30.6182" width="107.706" height="1.10318" transform="rotate(0.407382 61.2598 30.6182)" fill="#B0D0FF"/>
<rect x="61.0391" y="61.5068" width="107.706" height="1.10318" transform="rotate(0.407382 61.0391 61.5068)" fill="#B0D0FF"/>
<rect x="61.1797" y="41.6494" width="107.706" height="1.10318" transform="rotate(0.407382 61.1797 41.6494)" fill="#B0D0FF"/>
<rect x="61.1992" y="39.4448" width="107.706" height="1.10318" transform="rotate(0.407382 61.1992 39.4448)" fill="#B0D0FF"/>
<rect x="61.2266" y="35.0312" width="107.706" height="1.10318" transform="rotate(0.407382 61.2266 35.0312)" fill="#B0D0FF"/>
<rect x="61.2129" y="37.2368" width="107.706" height="1.10318" transform="rotate(0.407382 61.2129 37.2368)" fill="#B0D0FF"/>
<rect x="61.0254" y="63.7144" width="107.706" height="1.10318" transform="rotate(0.407382 61.0254 63.7144)" fill="#B0D0FF"/>
<rect x="61.2754" y="28.4131" width="107.706" height="1.10318" transform="rotate(0.407382 61.2754 28.4131)" fill="#B0D0FF"/>
<rect x="61.1523" y="46.063" width="107.706" height="1.10318" transform="rotate(0.407382 61.1523 46.063)" fill="#B0D0FF"/>
<rect x="61.1055" y="52.6812" width="107.706" height="1.10318" transform="rotate(0.407382 61.1055 52.6812)" fill="#B0D0FF"/>
<rect x="60.9785" y="70.3325" width="107.706" height="1.10318" transform="rotate(0.407382 60.9785 70.3325)" fill="#B0D0FF"/>
<rect x="61.2461" y="32.8262" width="107.706" height="1.10318" transform="rotate(0.407382 61.2461 32.8262)" fill="#B0D0FF"/>
<rect x="60.9316" y="76.9512" width="107.706" height="1.10318" transform="rotate(0.407382 60.9316 76.9512)" fill="#B0D0FF"/>
<rect x="60.916" y="79.1587" width="107.706" height="1.10318" transform="rotate(0.407382 60.916 79.1587)" fill="#B0D0FF"/>
<rect x="61.0586" y="59.3018" width="107.706" height="1.10318" transform="rotate(0.407382 61.0586 59.3018)" fill="#B0D0FF"/>
<rect x="61.1191" y="50.4756" width="107.706" height="1.10318" transform="rotate(0.407382 61.1191 50.4756)" fill="#B0D0FF"/>
<rect x="61.0859" y="54.8882" width="107.706" height="1.10318" transform="rotate(0.407382 61.0859 54.8882)" fill="#B0D0FF"/>
<rect x="60.9453" y="74.7451" width="107.706" height="1.10318" transform="rotate(0.407382 60.9453 74.7451)" fill="#B0D0FF"/>
</g>
</svg>
