<svg width="62" height="125" viewBox="0 0 62 125" fill="none" xmlns="http://www.w3.org/2000/svg">
<mask id="mask0_7_6125" style="mask-type:alpha" maskUnits="userSpaceOnUse" x="0" y="9" width="125" height="106">
<mask id="path-1-inside-1_7_6125" fill="white">
<path fill-rule="evenodd" clip-rule="evenodd" d="M10.8266 51.3715C16.8062 22.9999 44.6534 4.84762 73.025 10.8272L73.0876 10.8405L124.396 21.6543L113.569 73.0256L113.569 73.0256C107.59 101.397 79.7425 119.549 51.3709 113.57C51.3708 113.57 51.3708 113.57 51.3708 113.57L51.3708 113.57L-0.00057693 102.743L10.8265 51.3715L10.8266 51.3715Z"/>
</mask>
<path fill-rule="evenodd" clip-rule="evenodd" d="M10.8266 51.3715C16.8062 22.9999 44.6534 4.84762 73.025 10.8272L73.0876 10.8405L124.396 21.6543L113.569 73.0256L113.569 73.0256C107.59 101.397 79.7425 119.549 51.3709 113.57C51.3708 113.57 51.3708 113.57 51.3708 113.57L51.3708 113.57L-0.00057693 102.743L10.8265 51.3715L10.8266 51.3715Z" fill="#FF7028"/>
<path d="M73.025 10.8272L73.1353 10.3036L73.1357 10.3036L73.025 10.8272ZM10.8266 51.3715L11.3503 51.4819L11.2707 51.8593L10.8875 51.9032L10.8266 51.3715ZM73.0876 10.8405L72.9772 11.3641L72.9769 11.3641L73.0876 10.8405ZM124.396 21.6543L124.507 21.1307L125.03 21.241L124.92 21.7647L124.396 21.6543ZM113.569 73.0256L113.046 72.9152L113.569 73.0256ZM113.569 73.0256L114.093 73.136L113.569 73.0256ZM51.3708 113.57L50.8471 113.459L50.9575 112.936L51.4811 113.046L51.3708 113.57ZM51.3708 113.57L51.8944 113.68L51.7841 114.204L51.2604 114.094L51.3708 113.57ZM-0.00057693 102.743L-0.110946 103.267L-0.634613 103.156L-0.524244 102.632L-0.00057693 102.743ZM10.8265 51.3715L10.3028 51.2612L10.3824 50.8837L10.7656 50.8398L10.8265 51.3715ZM72.9146 11.3509C44.8322 5.43224 17.2689 23.3995 11.3503 51.4819L10.3029 51.2611C16.3435 22.6003 44.4745 4.26299 73.1353 10.3036L72.9146 11.3509ZM72.9769 11.3641L72.9143 11.3508L73.1357 10.3036L73.1982 10.3169L72.9769 11.3641ZM124.286 22.178L72.9772 11.3641L73.1979 10.3168L124.507 21.1307L124.286 22.178ZM113.046 72.9152L123.873 21.544L124.92 21.7647L114.093 73.136L113.046 72.9152ZM113.046 72.9153L113.046 72.9152L114.093 73.136L114.093 73.136L113.046 72.9153ZM51.4812 113.046C79.5636 118.965 107.127 100.998 113.046 72.9153L114.093 73.136C108.052 101.797 79.9213 120.134 51.2605 114.094L51.4812 113.046ZM51.4811 113.046C51.4812 113.046 51.4812 113.046 51.4812 113.046L51.2605 114.094C51.2605 114.094 51.2604 114.094 51.2604 114.094L51.4811 113.046ZM51.8944 113.68L51.8944 113.68L50.8471 113.46L50.8471 113.459L51.8944 113.68ZM51.2604 114.094L-0.110946 103.267L0.109792 102.219L51.4811 113.046L51.2604 114.094ZM-0.524244 102.632L10.3028 51.2612L11.3501 51.4819L0.523098 102.853L-0.524244 102.632ZM10.7656 50.8398L10.7657 50.8398L10.8875 51.9032L10.8874 51.9032L10.7656 50.8398Z" fill="#979797" mask="url(#path-1-inside-1_7_6125)"/>
</mask>
<g mask="url(#mask0_7_6125)">
<rect width="122.007" height="1.47887" transform="matrix(0.20623 -0.978504 -0.978504 -0.20623 63.4414 124.427)" fill="#FFDBCB"/>
<rect width="122.007" height="1.47887" transform="matrix(0.20623 -0.978504 -0.978504 -0.20623 2.66211 111.618)" fill="#FFDBCB"/>
<rect width="122.007" height="1.47887" transform="matrix(0.20623 -0.978504 -0.978504 -0.20623 11.3457 113.447)" fill="#FFDBCB"/>
<rect width="122.007" height="1.47887" transform="matrix(0.20623 -0.978504 -0.978504 -0.20623 22.9258 115.888)" fill="#FFDBCB"/>
<rect width="122.007" height="1.47887" transform="matrix(0.20623 -0.978504 -0.978504 -0.20623 8.45312 112.838)" fill="#FFDBCB"/>
<rect width="122.007" height="1.47887" transform="matrix(0.20623 -0.978504 -0.978504 -0.20623 34.502 118.328)" fill="#FFDBCB"/>
<rect width="122.007" height="1.47887" transform="matrix(0.20623 -0.978504 -0.978504 -0.20623 40.291 119.548)" fill="#FFDBCB"/>
<rect width="122.007" height="1.47887" transform="matrix(0.20623 -0.978504 -0.978504 -0.20623 57.6562 123.208)" fill="#FFDBCB"/>
<rect width="122.007" height="1.47887" transform="matrix(0.20623 -0.978504 -0.978504 -0.20623 17.1348 114.668)" fill="#FFDBCB"/>
<rect width="122.007" height="1.47887" transform="matrix(0.20623 -0.978504 -0.978504 -0.20623 43.1797 120.157)" fill="#FFDBCB"/>
<rect width="122.007" height="1.47887" transform="matrix(0.20623 -0.978504 -0.978504 -0.20623 46.0762 120.767)" fill="#FFDBCB"/>
<rect width="122.007" height="1.47887" transform="matrix(0.20623 -0.978504 -0.978504 -0.20623 51.8672 121.988)" fill="#FFDBCB"/>
<rect width="122.007" height="1.47887" transform="matrix(0.20623 -0.978504 -0.978504 -0.20623 48.9688 121.377)" fill="#FFDBCB"/>
<rect width="122.007" height="1.47887" transform="matrix(0.20623 -0.978504 -0.978504 -0.20623 14.2383 114.057)" fill="#FFDBCB"/>
<rect width="122.007" height="1.47887" transform="matrix(0.20623 -0.978504 -0.978504 -0.20623 60.5449 123.816)" fill="#FFDBCB"/>
<rect width="122.007" height="1.47887" transform="matrix(0.20623 -0.978504 -0.978504 -0.20623 37.3945 118.938)" fill="#FFDBCB"/>
<rect width="122.007" height="1.47887" transform="matrix(0.20623 -0.978504 -0.978504 -0.20623 28.7109 117.107)" fill="#FFDBCB"/>
<rect width="122.007" height="1.47887" transform="matrix(0.20623 -0.978504 -0.978504 -0.20623 5.56055 112.228)" fill="#FFDBCB"/>
<rect width="122.007" height="1.47887" transform="matrix(0.20623 -0.978504 -0.978504 -0.20623 54.7598 122.597)" fill="#FFDBCB"/>
<rect width="122.007" height="1.47887" transform="matrix(0.20623 -0.978504 -0.978504 -0.20623 -3.12695 110.397)" fill="#FFDBCB"/>
<rect width="122.007" height="1.47887" transform="matrix(0.20623 -0.978504 -0.978504 -0.20623 -6.01953 109.788)" fill="#FFDBCB"/>
<rect width="122.007" height="1.47887" transform="matrix(0.20623 -0.978504 -0.978504 -0.20623 20.0273 115.277)" fill="#FFDBCB"/>
<rect width="122.007" height="1.47887" transform="matrix(0.20623 -0.978504 -0.978504 -0.20623 31.6035 117.717)" fill="#FFDBCB"/>
<rect width="122.007" height="1.47887" transform="matrix(0.20623 -0.978504 -0.978504 -0.20623 25.8125 116.497)" fill="#FFDBCB"/>
<rect width="122.007" height="1.47887" transform="matrix(0.20623 -0.978504 -0.978504 -0.20623 -0.230469 111.008)" fill="#FFDBCB"/>
</g>
</svg>
