<svg width="25" height="24" viewBox="0 0 25 24" fill="none" xmlns="http://www.w3.org/2000/svg">
<g clip-path="url(#clip0_1153_6308)">
<path d="M23.2333 11H1.76667C1.06711 11 0.5 11.4253 0.5 11.95V12.05C0.5 12.5747 1.06711 13 1.76667 13H23.2333C23.9329 13 24.5 12.5747 24.5 12.05V11.95C24.5 11.4253 23.9329 11 23.2333 11Z" fill="#19191C"/>
<path d="M23.2333 17H1.76667C1.06711 17 0.5 17.4253 0.5 17.95V18.05C0.5 18.5747 1.06711 19 1.76667 19H23.2333C23.9329 19 24.5 18.5747 24.5 18.05V17.95C24.5 17.4253 23.9329 17 23.2333 17Z" fill="#19191C"/>
<path d="M23.2333 5H1.76667C1.06711 5 0.5 5.42533 0.5 5.95V6.05C0.5 6.57467 1.06711 7 1.76667 7H23.2333C23.9329 7 24.5 6.57467 24.5 6.05V5.95C24.5 5.42533 23.9329 5 23.2333 5Z" fill="#19191C"/>
</g>
<defs>
<clipPath id="clip0_1153_6308">
<rect width="24" height="24" fill="white" transform="translate(0.5)"/>
</clipPath>
</defs>
</svg>
