<svg width="173" height="283" viewBox="0 0 173 283" fill="none" xmlns="http://www.w3.org/2000/svg">
<path fill-rule="evenodd" clip-rule="evenodd" d="M86.0822 172.164C51.3852 172.164 21.4828 151.636 7.85746 122.063C21.1847 152.002 51.1957 172.876 86.0822 172.876L86.0822 172.164ZM172.164 87.2943C172.164 87.0925 172.164 86.8908 172.162 86.6893C172.164 86.4871 172.164 86.2847 172.164 86.0821C172.164 38.5403 133.624 -1.52588e-05 86.0822 -1.52588e-05L1.52588e-05 -3.05176e-05V86.0821C1.52588e-05 86.284 0.000709792 86.4856 0.0020966 86.6871C0.000699628 86.8894 0 87.0917 0 87.2943C0 134.836 38.5403 173.376 86.0822 173.376H172.164V87.2943Z" fill="#FEB27B" fill-opacity="0.1"/>
<mask id="mask0_2002_5664" style="mask-type:alpha" maskUnits="userSpaceOnUse" x="4" y="173" width="110" height="110">
<mask id="path-2-inside-1_2002_5664" fill="white">
<path fill-rule="evenodd" clip-rule="evenodd" d="M59.4087 282.497C89.5409 282.497 113.968 258.07 113.968 227.937L113.968 227.908V173.378H59.4087C29.2766 173.378 4.84962 197.805 4.84962 227.937L4.84961 282.497H59.4087Z"/>
</mask>
<path fill-rule="evenodd" clip-rule="evenodd" d="M59.4087 282.497C89.5409 282.497 113.968 258.07 113.968 227.937L113.968 227.908V173.378H59.4087C29.2766 173.378 4.84962 197.805 4.84962 227.937L4.84961 282.497H59.4087Z" fill="#D8D8D8"/>
<path d="M113.968 227.937H114.568V227.937L113.968 227.937ZM113.968 227.908H113.368V227.908L113.968 227.908ZM113.968 173.378H114.568V172.778H113.968V173.378ZM4.84962 227.937H5.44962H4.84962ZM4.84961 282.497H4.24961L4.24961 283.097H4.84961V282.497ZM113.368 227.937C113.368 257.738 89.2095 281.897 59.4087 281.897V283.097C89.8723 283.097 114.568 258.401 114.568 227.937H113.368ZM113.368 227.908L113.368 227.938L114.568 227.937L114.568 227.908L113.368 227.908ZM113.368 173.378V227.908H114.568V173.378H113.368ZM59.4087 173.978H113.968V172.778H59.4087V173.978ZM5.44962 227.937C5.44962 198.137 29.6079 173.978 59.4087 173.978V172.778C28.9452 172.778 4.24962 197.474 4.24962 227.937H5.44962ZM4.24962 227.937L4.24961 282.497H5.44961L5.44962 227.937H4.24962ZM4.84961 283.097H59.4087V281.897H4.84961V283.097Z" fill="#979797" mask="url(#path-2-inside-1_2002_5664)"/>
</mask>
<g mask="url(#mask0_2002_5664)">
<rect x="-3.60352" y="204.114" width="126.792" height="1.53688" fill="#3A84F4"/>
<rect x="-3.60352" y="210.262" width="126.792" height="1.53688" fill="#3A84F4"/>
<rect x="-3.60352" y="179.525" width="126.792" height="1.53688" fill="#3A84F4"/>
<rect x="-3.60352" y="197.967" width="126.792" height="1.53688" fill="#3A84F4"/>
<rect x="-3.60352" y="213.335" width="126.792" height="1.53688" fill="#3A84F4"/>
<rect x="-3.60352" y="194.893" width="126.792" height="1.53688" fill="#3A84F4"/>
<rect x="-3.60352" y="201.041" width="126.792" height="1.53688" fill="#3A84F4"/>
<rect x="-3.60352" y="182.599" width="126.792" height="1.53688" fill="#3A84F4"/>
<rect x="-3.60352" y="207.188" width="126.792" height="1.53688" fill="#3A84F4"/>
<rect x="-3.60352" y="188.746" width="126.792" height="1.53688" fill="#3A84F4"/>
<rect x="-3.60352" y="173.378" width="126.792" height="1.53688" fill="#3A84F4"/>
<rect x="-3.60352" y="185.672" width="126.792" height="1.53688" fill="#3A84F4"/>
<rect x="-3.60352" y="176.451" width="126.792" height="1.53688" fill="#3A84F4"/>
<rect x="-3.60352" y="191.82" width="126.792" height="1.53688" fill="#3A84F4"/>
<rect x="-3.60352" y="277.888" width="126.792" height="1.53688" fill="#3A84F4"/>
<rect x="-3.60352" y="268.667" width="126.792" height="1.53688" fill="#3A84F4"/>
<rect x="-3.60352" y="256.367" width="126.792" height="1.53688" fill="#3A84F4"/>
<rect x="-3.60352" y="271.74" width="126.792" height="1.53688" fill="#3A84F4"/>
<rect x="-3.60352" y="244.072" width="126.792" height="1.53688" fill="#3A84F4"/>
<rect x="-3.60352" y="237.925" width="126.792" height="1.53688" fill="#3A84F4"/>
<rect x="-3.60352" y="219.483" width="126.792" height="1.53688" fill="#3A84F4"/>
<rect x="-3.60352" y="262.519" width="126.792" height="1.53688" fill="#3A84F4"/>
<rect x="-3.60352" y="234.851" width="126.792" height="1.53688" fill="#3A84F4"/>
<rect x="-3.60352" y="231.778" width="126.792" height="1.53688" fill="#3A84F4"/>
<rect x="-3.60352" y="225.63" width="126.792" height="1.53688" fill="#3A84F4"/>
<rect x="-3.60352" y="228.704" width="126.792" height="1.53688" fill="#3A84F4"/>
<rect x="-3.60352" y="265.588" width="126.792" height="1.53688" fill="#3A84F4"/>
<rect x="-3.60352" y="216.409" width="126.792" height="1.53688" fill="#3A84F4"/>
<rect x="-3.60352" y="240.999" width="126.792" height="1.53688" fill="#3A84F4"/>
<rect x="-3.60352" y="250.22" width="126.792" height="1.53688" fill="#3A84F4"/>
<rect x="-3.60352" y="274.814" width="126.792" height="1.53688" fill="#3A84F4"/>
<rect x="-3.60352" y="222.557" width="126.792" height="1.53688" fill="#3A84F4"/>
<rect x="-3.60352" y="259.441" width="126.792" height="1.53688" fill="#3A84F4"/>
<rect x="-3.60352" y="247.146" width="126.792" height="1.53688" fill="#3A84F4"/>
<rect x="-3.60352" y="253.293" width="126.792" height="1.53688" fill="#3A84F4"/>
<rect x="-3.60352" y="280.961" width="126.792" height="1.53688" fill="#3A84F4"/>
</g>
</svg>
