<svg width="173" height="206" viewBox="0 0 173 206" fill="none" xmlns="http://www.w3.org/2000/svg">
<path fill-rule="evenodd" clip-rule="evenodd" d="M95.1931 76.6406C112.487 83.1244 124.85 97.0017 130.039 113.337C125.012 96.878 112.664 82.8542 95.3037 76.3456L95.1931 76.6406ZM21.0712 109.533C21.0449 109.602 21.0187 109.672 20.9926 109.741C20.9436 109.872 20.8951 110.003 20.8471 110.134C20.7999 110.257 20.7531 110.381 20.7067 110.505C9.48919 140.425 24.6507 173.773 54.5708 184.991L54.5709 184.991L54.5708 184.991L108.746 205.302L129.057 151.127L129.057 151.127L129.057 151.127C129.106 150.996 129.155 150.865 129.203 150.734C129.25 150.611 129.297 150.487 129.343 150.364C140.56 120.443 125.399 87.0948 95.4789 75.8773C95.3729 75.8376 95.2669 75.7982 95.1609 75.7592L41.3037 55.5673L21.0712 109.533Z" fill="#FEB27B" fill-opacity="0.1"/>
<mask id="mask0_2001_5664" style="mask-type:alpha" maskUnits="userSpaceOnUse" x="77" y="11" width="96" height="74">
<mask id="path-2-inside-1_2001_5664" fill="white">
<path fill-rule="evenodd" clip-rule="evenodd" d="M159.53 60.5632C159.513 60.6114 159.495 60.6595 159.477 60.7076C152.367 79.671 131.231 89.2804 112.267 82.1707C112.191 82.1422 112.115 82.1135 112.039 82.0845L77.9309 69.2968L90.8041 34.9604L90.8042 34.9604C97.9142 15.9976 119.05 6.38852 138.013 13.4979L138.014 13.4971L172.35 26.3703L159.53 60.5632Z"/>
</mask>
<path fill-rule="evenodd" clip-rule="evenodd" d="M159.53 60.5632C159.513 60.6114 159.495 60.6595 159.477 60.7076C152.367 79.671 131.231 89.2804 112.267 82.1707C112.191 82.1422 112.115 82.1135 112.039 82.0845L77.9309 69.2968L90.8041 34.9604L90.8042 34.9604C97.9142 15.9976 119.05 6.38852 138.013 13.4979L138.014 13.4971L172.35 26.3703L159.53 60.5632Z" fill="#D8D8D8"/>
<path d="M159.53 60.5632L158.969 60.3526L158.968 60.3549L159.53 60.5632ZM112.039 82.0845L112.254 81.5241L112.25 81.5227L112.039 82.0845ZM77.9309 69.2968L77.3691 69.0861L77.1585 69.6479L77.7203 69.8586L77.9309 69.2968ZM90.8041 34.9604L91.0147 34.3986L90.4529 34.1879L90.2423 34.7497L90.8041 34.9604ZM90.8042 34.9604L90.5936 35.5222L91.1554 35.7329L91.3661 35.1711L90.8042 34.9604ZM138.013 13.4979L137.803 14.0597L138.364 14.2703L138.575 13.7085L138.013 13.4979ZM138.014 13.4971L138.224 12.9352L137.662 12.7246L137.452 13.2864L138.014 13.4971ZM172.35 26.3703L172.912 26.5809L173.122 26.0191L172.561 25.8084L172.35 26.3703ZM158.968 60.3549C158.95 60.4023 158.933 60.4496 158.915 60.4969L160.039 60.9182C160.057 60.8693 160.075 60.8205 160.093 60.7716L158.968 60.3549ZM158.915 60.4969C151.922 79.1501 131.131 88.6023 112.478 81.6089L112.057 82.7326C131.33 89.9586 152.813 80.1919 160.039 60.9182L158.915 60.4969ZM112.478 81.6089C112.403 81.5809 112.328 81.5526 112.254 81.5241L111.825 82.6449C111.902 82.6744 111.979 82.7036 112.057 82.7326L112.478 81.6089ZM112.25 81.5227L78.1415 68.7349L77.7203 69.8586L111.829 82.6463L112.25 81.5227ZM78.4927 69.5074L91.3659 35.171L90.2423 34.7497L77.3691 69.0861L78.4927 69.5074ZM90.5935 35.5222L90.5936 35.5222L91.0149 34.3986L91.0147 34.3986L90.5935 35.5222ZM91.3661 35.1711C98.3596 16.5185 119.15 7.06666 137.803 14.0597L138.224 12.9361C118.95 5.71037 97.4687 15.4767 90.2424 34.7498L91.3661 35.1711ZM137.452 13.2864L137.451 13.2873L138.575 13.7085L138.575 13.7077L137.452 13.2864ZM172.561 25.8084L138.224 12.9352L137.803 14.0589L172.139 26.9321L172.561 25.8084ZM160.092 60.7739L172.912 26.5809L171.788 26.1596L158.969 60.3526L160.092 60.7739Z" fill="#979797" mask="url(#path-2-inside-1_2001_5664)"/>
</mask>
<g mask="url(#mask0_2001_5664)">
<rect x="159.176" y="77.6948" width="85.2196" height="1.03296" transform="rotate(-159.448 159.176 77.6948)" fill="#3A84F4"/>
<rect x="160.627" y="73.8264" width="85.2196" height="1.03296" transform="rotate(-159.448 160.627 73.8264)" fill="#3A84F4"/>
<rect x="153.375" y="93.1699" width="85.2196" height="1.03296" transform="rotate(-159.448 153.375 93.1699)" fill="#3A84F4"/>
<rect x="157.725" y="81.5642" width="85.2196" height="1.03296" transform="rotate(-159.448 157.725 81.5642)" fill="#3A84F4"/>
<rect x="151.197" y="98.9734" width="85.2196" height="1.03296" transform="rotate(-159.448 151.197 98.9734)" fill="#3A84F4"/>
<rect x="150.473" y="100.908" width="85.2196" height="1.03296" transform="rotate(-159.448 150.473 100.908)" fill="#3A84F4"/>
<rect x="161.352" y="71.8921" width="85.2196" height="1.03296" transform="rotate(-159.448 161.352 71.8921)" fill="#3A84F4"/>
<rect x="157" y="83.4983" width="85.2196" height="1.03296" transform="rotate(-159.448 157 83.4983)" fill="#3A84F4"/>
<rect x="158.451" y="79.6292" width="85.2196" height="1.03296" transform="rotate(-159.448 158.451 79.6292)" fill="#3A84F4"/>
<rect x="154.1" y="91.2356" width="85.2196" height="1.03296" transform="rotate(-159.448 154.1 91.2356)" fill="#3A84F4"/>
<rect x="159.9" y="75.7605" width="85.2196" height="1.03296" transform="rotate(-159.448 159.9 75.7605)" fill="#3A84F4"/>
<rect x="155.549" y="87.3669" width="85.2196" height="1.03296" transform="rotate(-159.448 155.549 87.3669)" fill="#3A84F4"/>
<rect x="151.924" y="97.0391" width="85.2196" height="1.03296" transform="rotate(-159.448 151.924 97.0391)" fill="#3A84F4"/>
<rect x="154.824" y="89.3013" width="85.2196" height="1.03296" transform="rotate(-159.448 154.824 89.3013)" fill="#3A84F4"/>
<rect x="147.572" y="108.645" width="85.2196" height="1.03296" transform="rotate(-159.448 147.572 108.645)" fill="#3A84F4"/>
<rect x="152.648" y="95.1047" width="85.2196" height="1.03296" transform="rotate(-159.448 152.648 95.1047)" fill="#3A84F4"/>
<rect x="156.275" y="85.4326" width="85.2196" height="1.03296" transform="rotate(-159.448 156.275 85.4326)" fill="#3A84F4"/>
<rect x="176.582" y="31.2661" width="85.2196" height="1.03296" transform="rotate(-159.448 176.582 31.2661)" fill="#3A84F4"/>
<rect x="174.406" y="37.0696" width="85.2196" height="1.03296" transform="rotate(-159.448 174.406 37.0696)" fill="#3A84F4"/>
<rect x="171.506" y="44.8093" width="85.2196" height="1.03296" transform="rotate(-159.448 171.506 44.8093)" fill="#3A84F4"/>
<rect x="175.133" y="35.1353" width="85.2196" height="1.03296" transform="rotate(-159.448 175.133 35.1353)" fill="#3A84F4"/>
<rect x="168.604" y="52.5471" width="85.2196" height="1.03296" transform="rotate(-159.448 168.604 52.5471)" fill="#3A84F4"/>
<rect x="167.154" y="56.417" width="85.2196" height="1.03296" transform="rotate(-159.448 167.154 56.417)" fill="#3A84F4"/>
<rect x="162.803" y="68.0227" width="85.2196" height="1.03296" transform="rotate(-159.448 162.803 68.0227)" fill="#3A84F4"/>
<rect x="172.957" y="40.9382" width="85.2196" height="1.03296" transform="rotate(-159.448 172.957 40.9382)" fill="#3A84F4"/>
<rect x="166.428" y="58.3513" width="85.2196" height="1.03296" transform="rotate(-159.448 166.428 58.3513)" fill="#3A84F4"/>
<rect x="165.703" y="60.2849" width="85.2196" height="1.03296" transform="rotate(-159.448 165.703 60.2849)" fill="#3A84F4"/>
<rect x="164.252" y="64.1543" width="85.2196" height="1.03296" transform="rotate(-159.448 164.252 64.1543)" fill="#3A84F4"/>
<rect x="164.979" y="62.2192" width="85.2196" height="1.03296" transform="rotate(-159.448 164.979 62.2192)" fill="#3A84F4"/>
<rect x="149.023" y="104.776" width="85.2196" height="1.03296" transform="rotate(-159.448 149.023 104.776)" fill="#3A84F4"/>
<rect x="173.68" y="39.0066" width="85.2196" height="1.03296" transform="rotate(-159.448 173.68 39.0066)" fill="#3A84F4"/>
<rect x="162.076" y="69.9578" width="85.2196" height="1.03296" transform="rotate(-159.448 162.076 69.9578)" fill="#3A84F4"/>
<rect x="167.879" y="54.4814" width="85.2196" height="1.03296" transform="rotate(-159.448 167.879 54.4814)" fill="#3A84F4"/>
<rect x="170.055" y="48.6792" width="85.2196" height="1.03296" transform="rotate(-159.448 170.055 48.6792)" fill="#3A84F4"/>
<rect x="175.857" y="33.2004" width="85.2196" height="1.03296" transform="rotate(-159.448 175.857 33.2004)" fill="#3A84F4"/>
<rect x="163.527" y="66.0886" width="85.2196" height="1.03296" transform="rotate(-159.448 163.527 66.0886)" fill="#3A84F4"/>
<rect x="148.297" y="106.711" width="85.2196" height="1.03296" transform="rotate(-159.448 148.297 106.711)" fill="#3A84F4"/>
<rect x="178.033" y="27.3975" width="85.2196" height="1.03296" transform="rotate(-159.448 178.033 27.3975)" fill="#3A84F4"/>
<rect x="149.748" y="102.842" width="85.2196" height="1.03296" transform="rotate(-159.448 149.748 102.842)" fill="#3A84F4"/>
<rect x="178.758" y="25.4634" width="85.2196" height="1.03296" transform="rotate(-159.448 178.758 25.4634)" fill="#3A84F4"/>
<rect x="172.23" y="42.8752" width="85.2196" height="1.03296" transform="rotate(-159.448 172.23 42.8752)" fill="#3A84F4"/>
<rect x="169.33" y="50.6135" width="85.2196" height="1.03296" transform="rotate(-159.448 169.33 50.6135)" fill="#3A84F4"/>
<rect x="170.779" y="46.7437" width="85.2196" height="1.03296" transform="rotate(-159.448 170.779 46.7437)" fill="#3A84F4"/>
<rect x="177.309" y="29.3318" width="85.2196" height="1.03296" transform="rotate(-159.448 177.309 29.3318)" fill="#3A84F4"/>
</g>
</svg>
