<svg width="137" height="20" viewBox="0 0 137 20" fill="none" xmlns="http://www.w3.org/2000/svg">
<path d="M7.18 14.74C8.75333 14.74 10 14.2 10.92 13.12C11.8533 12.04 12.32 10.6267 12.32 8.88V8.72C12.32 7.05333 11.8533 5.67333 10.92 4.58C10 3.47333 8.74 2.92 7.14 2.92C5.51333 2.92 4.23333 3.46 3.3 4.54C2.36667 5.62 1.9 7.02667 1.9 8.76V8.92C1.9 10.6267 2.4 12.0267 3.4 13.12C4.41333 14.2 5.67333 14.74 7.18 14.74ZM7.18 16.18C5.1 16.18 3.4 15.4867 2.08 14.1C0.76 12.7 0.1 10.98 0.1 8.94V8.78C0.1 6.71333 0.753333 4.98667 2.06 3.6C3.38 2.21333 5.07333 1.52 7.14 1.52C9.20667 1.52 10.8867 2.21333 12.18 3.6C13.4733 4.97333 14.12 6.68667 14.12 8.74V8.9C14.12 10.9533 13.4733 12.68 12.18 14.08C10.8867 15.48 9.22 16.18 7.18 16.18ZM17.6909 16V5.54H19.3509V7.2C19.6043 6.66667 20.0243 6.22667 20.6109 5.88C21.1976 5.53333 21.8976 5.36 22.7109 5.36C23.8576 5.36 24.7576 5.7 25.4109 6.38C26.0643 7.06 26.3909 8.12667 26.3909 9.58V16H24.7309V9.46C24.7309 8.54 24.5309 7.86667 24.1309 7.44C23.7309 7.01333 23.1109 6.8 22.2709 6.8C21.4576 6.8 20.7643 7.05333 20.1909 7.56C19.6309 8.06667 19.3509 8.76667 19.3509 9.66V16H17.6909ZM30.4841 16V0.539999H32.1641V16H30.4841ZM36.4013 16V5.54H38.0613V16H36.4013ZM37.9613 3.04C37.7479 3.25333 37.4946 3.36 37.2013 3.36C36.9079 3.36 36.6479 3.25333 36.4213 3.04C36.2079 2.82667 36.1013 2.56667 36.1013 2.26C36.1013 1.95333 36.2079 1.69333 36.4213 1.48C36.6479 1.26667 36.9079 1.16 37.2013 1.16C37.4946 1.16 37.7479 1.26667 37.9613 1.48C38.1879 1.69333 38.3013 1.95333 38.3013 2.26C38.3013 2.56667 38.1879 2.82667 37.9613 3.04ZM42.2589 16V5.54H43.9189V7.2C44.1722 6.66667 44.5922 6.22667 45.1789 5.88C45.7656 5.53333 46.4656 5.36 47.2789 5.36C48.4256 5.36 49.3256 5.7 49.9789 6.38C50.6322 7.06 50.9589 8.12667 50.9589 9.58V16H49.2989V9.46C49.2989 8.54 49.0989 7.86667 48.6989 7.44C48.2989 7.01333 47.6789 6.8 46.8389 6.8C46.0256 6.8 45.3322 7.05333 44.7589 7.56C44.1989 8.06667 43.9189 8.76667 43.9189 9.66V16H42.2589ZM59.292 16.18C57.7987 16.18 56.5787 15.7 55.632 14.74C54.6987 13.7667 54.232 12.48 54.232 10.88V10.72C54.232 9.14667 54.6854 7.86 55.592 6.86C56.512 5.86 57.692 5.36 59.132 5.36C60.4654 5.36 61.5787 5.79333 62.472 6.66C63.3787 7.51333 63.832 8.81333 63.832 10.56V11.1H55.952C55.992 12.3 56.292 13.22 56.852 13.86C57.4254 14.4867 58.2454 14.8 59.312 14.8C60.952 14.8 61.8787 14.1933 62.092 12.98H63.752C63.5787 14.0067 63.092 14.8 62.292 15.36C61.492 15.9067 60.492 16.18 59.292 16.18ZM56.012 9.76H62.132C61.9854 7.74667 60.9854 6.74 59.132 6.74C58.292 6.74 57.5987 7.01333 57.052 7.56C56.5054 8.09333 56.1587 8.82667 56.012 9.76ZM73.5992 16.24C71.1592 16.24 69.3059 15.5867 68.0392 14.28C66.7726 12.9733 66.1392 11.1933 66.1392 8.94V8.78C66.1392 6.60667 66.8259 4.84667 68.1992 3.5C69.5726 2.15333 71.3192 1.48 73.4392 1.48C75.3592 1.48 76.9059 1.94 78.0792 2.86C79.2526 3.76667 79.9192 5.14 80.0792 6.98H75.8592C75.6992 5.47333 74.8992 4.72 73.4592 4.72C72.5259 4.72 71.7926 5.07333 71.2592 5.78C70.7259 6.48667 70.4592 7.48 70.4592 8.76V8.92C70.4592 10.2133 70.7259 11.2133 71.2592 11.92C71.7926 12.6133 72.5459 12.96 73.5192 12.96C74.2526 12.96 74.8526 12.7667 75.3192 12.38C75.7992 11.98 76.0859 11.3933 76.1792 10.62H80.2592C80.1259 12.4333 79.4592 13.8267 78.2592 14.8C77.0592 15.76 75.5059 16.24 73.5992 16.24ZM84.1727 16.24C83.146 16.24 82.2993 15.98 81.6327 15.46C80.966 14.94 80.6327 14.1533 80.6327 13.1C80.6327 10.82 82.486 9.68 86.1927 9.68H87.1927V9.44C87.1927 8.89333 87.0927 8.48 86.8927 8.2C86.706 7.92 86.346 7.78 85.8127 7.78C84.9727 7.78 84.4993 8.19333 84.3927 9.02H81.0327C81.1127 7.79333 81.5993 6.86 82.4927 6.22C83.386 5.58 84.566 5.26 86.0327 5.26C87.526 5.26 88.686 5.58667 89.5127 6.24C90.3393 6.88 90.7527 7.87333 90.7527 9.22V16H87.2727V14.78C86.6327 15.7533 85.5993 16.24 84.1727 16.24ZM85.4127 13.82C85.9327 13.82 86.3593 13.6867 86.6927 13.42C87.026 13.14 87.1927 12.78 87.1927 12.34V11.7H86.2527C85.5193 11.7 84.986 11.7867 84.6527 11.96C84.3327 12.12 84.1727 12.4133 84.1727 12.84C84.1727 13.4933 84.586 13.82 85.4127 13.82ZM99.7752 15.36C98.9485 15.9467 97.7885 16.24 96.2952 16.24C94.8018 16.24 93.6352 15.94 92.7952 15.34C91.9685 14.7267 91.5352 13.84 91.4952 12.68H94.7952C94.8618 13.08 95.0018 13.38 95.2152 13.58C95.4285 13.7667 95.7818 13.86 96.2752 13.86C97.1285 13.86 97.5552 13.5733 97.5552 13C97.5552 12.7467 97.4085 12.5533 97.1152 12.42C96.8352 12.2867 96.3352 12.1667 95.6152 12.06C94.1885 11.8733 93.1685 11.5333 92.5552 11.04C91.9418 10.5467 91.6352 9.76667 91.6352 8.7C91.6352 7.59333 92.0618 6.74667 92.9152 6.16C93.7685 5.56 94.8352 5.26 96.1152 5.26C98.9818 5.26 100.522 6.38667 100.735 8.64H97.4952C97.3618 7.94667 96.9152 7.6 96.1552 7.6C95.7818 7.6 95.4885 7.67333 95.2752 7.82C95.0752 7.96667 94.9752 8.16667 94.9752 8.42C94.9752 8.66 95.1018 8.84667 95.3552 8.98C95.6218 9.1 96.0818 9.2 96.7352 9.28C98.2552 9.46667 99.3485 9.80667 100.015 10.3C100.695 10.78 101.035 11.56 101.035 12.64C101.035 13.8533 100.615 14.76 99.7752 15.36ZM106.048 16.24C103.595 16.24 102.368 15.04 102.368 12.64V7.98H101.108V5.54H102.368V3.36H105.948V5.54H108.008V7.98H105.948V12.3C105.948 13.0333 106.301 13.4 107.008 13.4C107.368 13.4 107.708 13.34 108.028 13.22V15.94C107.255 16.14 106.595 16.24 106.048 16.24ZM109.162 16V5.54H112.742V16H109.162ZM112.342 4.02C111.968 4.36667 111.502 4.54 110.942 4.54C110.382 4.54 109.915 4.36667 109.542 4.02C109.168 3.67333 108.982 3.23333 108.982 2.7C108.982 2.16667 109.168 1.72667 109.542 1.38C109.915 1.02 110.382 0.84 110.942 0.84C111.502 0.84 111.968 1.02 112.342 1.38C112.728 1.72667 112.922 2.16667 112.922 2.7C112.922 3.23333 112.728 3.67333 112.342 4.02ZM114.36 16V5.54H117.94V7.22C118.247 6.63333 118.687 6.16 119.26 5.8C119.847 5.44 120.553 5.26 121.38 5.26C122.433 5.26 123.267 5.59333 123.88 6.26C124.493 6.92667 124.8 7.90667 124.8 9.2V16H121.22V9.92C121.22 8.74667 120.72 8.16 119.72 8.16C119.173 8.16 118.74 8.32667 118.42 8.66C118.1 8.99333 117.94 9.48667 117.94 10.14V16H114.36ZM131.14 19.88C127.794 19.88 125.967 18.5867 125.66 16H129.22C129.407 16.9067 130.047 17.36 131.14 17.36C132.62 17.36 133.36 16.6267 133.36 15.16V13.56C133.067 14.1067 132.634 14.5667 132.06 14.94C131.5 15.3 130.854 15.48 130.12 15.48C128.854 15.48 127.794 15.0333 126.94 14.14C126.1 13.2467 125.68 12.02 125.68 10.46V10.3C125.68 8.79333 126.1 7.58 126.94 6.66C127.794 5.72667 128.854 5.26 130.12 5.26C131.614 5.26 132.694 5.84667 133.36 7.02V5.54H136.94V15.12C136.94 16.68 136.44 17.86 135.44 18.66C134.454 19.4733 133.02 19.88 131.14 19.88ZM129.88 12.2C130.24 12.6267 130.74 12.84 131.38 12.84C132.02 12.84 132.527 12.6267 132.9 12.2C133.274 11.76 133.46 11.1733 133.46 10.44V10.3C133.46 9.56667 133.28 8.99333 132.92 8.58C132.56 8.15333 132.054 7.94 131.4 7.94C130.747 7.94 130.24 8.15333 129.88 8.58C129.52 9.00667 129.34 9.58667 129.34 10.32V10.48C129.34 11.2 129.52 11.7733 129.88 12.2Z" fill="#19191C"/>
</svg>
