<svg width="61" height="48" viewBox="0 0 61 48" fill="none" xmlns="http://www.w3.org/2000/svg">
<path d="M15.3927 25.2C18.5127 25.56 20.8527 26.88 22.4127 29.16C23.9727 31.44 24.7527 33.96 24.7527 36.72C24.7527 39.6 23.7927 42.18 21.8727 44.46C20.0727 46.74 17.3727 47.88 13.7727 47.88C12.3327 47.88 10.8327 47.64 9.27274 47.16C7.71273 46.56 6.27273 45.6 4.95273 44.28C3.63273 42.96 2.55273 41.16 1.71273 38.88C0.872735 36.6 0.452735 33.72 0.452735 30.24C0.452735 23.76 2.31273 17.94 6.03274 12.78C9.75274 7.49999 14.4927 3.29999 20.2527 0.179998L25.4727 7.37999C22.3527 9.05999 19.5327 11.34 17.0127 14.22C14.6127 16.98 12.9927 20.46 12.1527 24.66L15.3927 25.2ZM50.4927 25.2C53.6127 25.56 55.9527 26.88 57.5127 29.16C59.0727 31.44 59.8527 33.96 59.8527 36.72C59.8527 39.6 58.8927 42.18 56.9727 44.46C55.1727 46.74 52.4727 47.88 48.8727 47.88C47.4327 47.88 45.9327 47.64 44.3727 47.16C42.8127 46.56 41.3727 45.6 40.0527 44.28C38.7327 42.96 37.6527 41.16 36.8127 38.88C35.9727 36.6 35.5527 33.72 35.5527 30.24C35.5527 23.76 37.4127 17.94 41.1327 12.78C44.8527 7.49999 49.5927 3.29999 55.3527 0.179998L60.5727 7.37999C57.4527 9.05999 54.6327 11.34 52.1127 14.22C49.7127 16.98 48.0927 20.46 47.2527 24.66L50.4927 25.2Z" fill="#F9F9FC"/>
</svg>
